#!OML:ASF F:\VICON\USERDATA\INSTALL\rory3\rory3.ASF
:FULLY-SPECIFIED
:DEGREES
19
root -0.6419760467208091 17.683200930751237 -13.638691151153525 -1.4434022421035682 6.873764295416189 -3.886075508266562
lfemur -23.751496158640336 -3.5018229992753707 -21.614798879911902
ltibia 40.95960494716881
lfoot -11.770492258430922 -10.711393951756198
ltoes -1.549438986165896
rfemur -7.638075314935616 -2.109073564721662 27.04960382182674
rtibia 96.09898943507854
rfoot 21.07318836933088 -13.163589872400987
rtoes 16.75529093526263
lowerback 16.497294665853378 1.0708685801249125 2.7687665678337847
upperback -0.0810401971793131 2.0672180570798093 1.1520152583587333
thorax -9.314926446702975 0.89152038332839 -0.8248265366114419
lowerneck -18.95710907201227 -5.346237131362294 -1.6914257418308614
upperneck 15.242890852615213 -7.620285833971931 4.051617598997037
head 8.059281598788417 -3.300166915230908 0.6760169324908786
lclavicle -1.7288339579140546e-15 1.7836277406293794e-15
lhumerus -61.08469287871746 -12.545202606964613 100.14099149352263
lradius 104.07300453730622
lwrist 33.45060030874515
lhand -25.856195461204592 0.7974909785469493
lfingers 7.12502
lthumb 0.6846115312644712 30.776103954813294
rclavicle -1.7288339579140546e-15 1.7836277406293794e-15
rhumerus -48.45430220059123 14.403489746506656 -101.75298760654478
rradius 104.6730078703663
rwrist -7.87791826191213
rhand -19.72158448437796 40.73909400224832
rfingers 7.12502
rthumb 6.6085656298443975 10.862194711397462
20
root -0.6466339297476754 17.474904309875008 -12.685891203494519 -1.1420037506779241 6.632264932292822 -2.5196102223956243
lfemur -22.372296868982566 -3.7977622864838767 -23.298896197680506
ltibia 45.081002645401725
lfoot -17.152487505831814 -7.689818912445531
ltoes 2.0965072937951312
rfemur -13.3077027587318 -3.786109668818779 23.90240915347134
rtibia 102.40698580909572
rfoot 20.997888626208372 -9.95280457613119
rtoes 15.041692378166726
lowerback 16.843592693252795 1.0303288455324946 0.9001372979979538
upperback 0.15045851686971012 1.6215396960297608 0.8064198433344687
thorax -9.309296540180364 0.7562996203157233 -0.03689990158299761
lowerneck -19.70270476026039 -5.254087752535584 -1.367471118519303
upperneck 15.087891786501622 -7.553945986516389 3.9693783346505027
head 8.117170190129487 -3.2486075000435086 0.5904370399563292
lclavicle -1.7288340642170573e-15 1.7836277577894746e-15
lhumerus -56.908796044123015 -14.232599850400652 100.17699142576025
lradius 104.53000408765587
lwrist 34.90129573029015
lhand -24.96100040442478 0.05629581559499086
lfingers 7.12502
lthumb 1.5492695954365574 30.03040641028186
rclavicle -1.7288340642170573e-15 1.7836277577894746e-15
rhumerus -49.2373014891497 13.324791696888811 -101.86498696693953
rradius 101.65501295321884
rwrist -6.520573334747023
rhand -22.24657155136114 37.4437150293749
rfingers 7.12502
rthumb 4.170698460321952 7.504846538011252
21
root -0.6071139414733516 17.228848750968336 -10.21895827407196 -0.7393272251169334 5.0305353359248715 0.7137525547522499
lfemur -19.570202153772435 -2.523035936317221 -26.80557917266063
ltibia 47.343201771467875
lfoot -20.348180961226756 -2.2831593939955743
ltoes -1.2138237511601382
rfemur -19.378998987450483 -4.550250630048847 19.464117243717194
rtibia 108.45097446907451
rfoot 18.182503907603056 -6.365534854003983
rtoes 16.1774392340395
lowerback 17.75109977477266 1.641653709403656 -2.871299742884098
upperback -0.06063041430953264 1.7272221193642756 -0.3647396987178757
thorax -10.041208889624373 0.979147955571646 1.1193061937290123
lowerneck -20.156508391650558 -5.030633741147399 -1.606002215769189
upperneck 14.622233117470405 -7.184441870648952 4.357324309582731
head 8.02703547806913 -3.007390350642873 1.0960043315434658
lclavicle -1.7234460918310798e-15 1.7874508744124116e-15
lhumerus -51.44916256108773 -16.80121447414958 100.20198404893345
lradius 103.01310692367477
lwrist 36.42230702523648
lhand -26.838544887399493 3.41502681058674
lfingers 7.12502
lthumb -0.12438386310069771 33.000844379521006
rclavicle -1.7296998201431687e-15 1.7810609369299265e-15
rhumerus -50.07839494737831 11.681850817964497 -101.76481740833944
rradius 100.61498414588482
rwrist -5.816741810652364
rhand -18.31235670803676 38.62258299056448
rfingers 7.12502
rthumb 7.554582520299325 9.13139114916912
22
root -0.5704718945798525 17.000709830456984 -9.442796100854663 0.0264464889556959 4.455377539088857 1.7456477630980687
lfemur -16.667613823055497 -2.278151680593452 -27.709787812135367
ltibia 48.89464986639323
lfoot -23.257579627883757 1.1883649211355154
ltoes -2.155196338341373
rfemur -25.77781464595323 -5.647886114286164 17.91423435307382
rtibia 112.87008405183764
rfoot 15.410312413917055 -4.315586613524805
rtoes 17.13504168757854
lowerback 18.04945062573882 1.625844065899675 -4.057590769767921
upperback -0.07994057914233599 1.471238908779788 -0.6675090583938528
thorax -10.214855501717743 0.8510126062058889 1.5174237930639378
lowerneck -20.79787644746848 -4.821255499405751 -2.006845178551376
upperneck 14.399518916760801 -6.83255004498601 4.682861671171972
head 8.016807479100967 -2.8258301205281704 1.2355602114631279
lclavicle -1.7267911917537796e-15 1.785100310821541e-15
lhumerus -45.8014502109951 -19.27463049667881 99.77481173010884
lradius 102.0925269434137
lwrist 37.40167294301714
lhand -27.245156018742122 4.823398009018069
lfingers 7.12502
lthumb -0.5648386090766626 34.10863754444661
rclavicle -1.7339676452754178e-15 1.777811083552774e-15
rhumerus -51.04169953997836 9.933883346361903 -101.27715867008087
rradius 101.00085177620711
rwrist -5.888600290408791
rhand -17.432053496619954 39.25492025875631
rfingers 7.12502
rthumb 7.756129386520114 9.010230737448708
23
root -0.5210486938782716 16.895877419792086 -8.502860263606811 0.8263490543840666 3.9755626157359325 0.8315327925405933
lfemur -14.273262578258006 -1.7895976236146909 -26.41834375065578
ltibia 49.9764891740816
lfoot -25.417291101478714 2.754113114296376
ltoes -0.6204279464585039
rfemur -32.40061394180084 -6.155349377307665 19.176661436179803
rtibia 114.7907741729936
rfoot 12.464625985677007 -4.304100003673758
rtoes 12.327692155515619
lowerback 18.006362932158773 1.31255599774215 -3.304544753267
upperback -0.17676791934671976 1.235196208468794 -0.22449737788383795
thorax -10.145102306642897 0.7214386857941146 1.5234814742833547
lowerneck -21.102121808312294 -4.630729531034859 -1.9642561757613146
upperneck 14.272352605248669 -6.5597027733190885 4.743248020927105
head 8.03503096376969 -2.6704180955838916 1.2747769375033875
lclavicle -1.731738143748099e-15 1.781491640251234e-15
lhumerus -40.70782183957442 -20.55497078742987 99.18921288974524
lradius 102.77799437529647
lwrist 36.88421256130759
lhand -26.285338717997732 4.26600378622326
lfingers 7.12502
lthumb 0.28922868710869865 33.85558779088305
rclavicle -1.7327788755137539e-15 1.778164395793855e-15
rhumerus -52.44960678432186 8.505283450538721 -100.74551538751474
rradius 102.6512171962418
rwrist -6.821107315398216
rhand -16.810878729649687 39.40266725806155
rfingers 7.12502
rthumb 8.078456897534407 9.06382629415146
24
root -0.4858861679346336 16.884157811268377 -8.198859323716123 0.9565541939058164 3.812853384321915 0.6558944981338755
lfemur -11.066439805203945 -1.3141290068644567 -26.17991051359439
ltibia 49.72414294008731
lfoot -25.489362826904365 3.699425053035587
ltoes -1.4899408190286234
rfemur -37.85139305462647 -6.856752830246069 19.779970246157973
rtibia 114.43862740381209
rfoot 10.138676293217792 -4.586835195031831
rtoes 9.865654319937429
lowerback 18.509109307647766 0.8993471023190561 -3.3454829366287937
upperback -0.319637839151387 0.6364287754977698 0.05948243282741772
thorax -10.464824189653571 0.4499958795811048 2.091920114913786
lowerneck -20.82512330459621 -4.301376938814905 -2.053942710938664
upperneck 14.187735279966299 -6.09640606849717 4.811520531184309
head 8.007906123295994 -2.4627414983169373 1.3757884125906177
lclavicle -1.7275012083357107e-15 1.7845451913249198e-15
lhumerus -37.161369568152566 -20.559597212140034 98.56040019320477
lradius 105.40351195633494
lwrist 35.40162298988636
lhand -25.3871030151233 4.417237812445205
lfingers 7.12502
lthumb 1.1126634135389468 33.857285882196095
rclavicle -1.7226335739082657e-15 1.78564425735532e-15
rhumerus -53.77157296524445 8.285838644652737 -100.45753612875289
rradius 104.61995663224064
rwrist -8.301175022277288
rhand -16.391568505533954 39.23190267418091
rfingers 7.12502
rthumb 8.594110845686737 9.395235468704598
25
root -0.46028575078873757 16.923999065277574 -7.3030781576679065 1.1852922049777552 3.154296994200694 0.6313657284494845
lfemur -7.413864462105833 -0.5383213855162167 -26.16690625146842
ltibia 48.30168467114164
lfoot -24.160099044459947 3.587685056348147
ltoes -4.635434105809037
rfemur -42.0180197610928 -6.626248613138083 20.516125331641526
rtibia 111.98143156843992
rfoot 8.148879531706266 -5.145275281954384
rtoes 6.382005112017385
lowerback 18.685959002872508 0.6882612809955682 -3.7624462811440518
upperback -0.3724727896576815 0.30643008475469924 0.40588333685128464
thorax -10.550272622354322 0.2996387926528908 2.9212079835890914
lowerneck -21.175764183730585 -4.0781598434857065 -1.9749003635294669
upperneck 14.247359321838275 -5.7974492002083275 4.6832106791517445
head 8.062939427864176 -2.324331846578571 1.3197176246426918
lclavicle -1.7284039608085579e-15 1.7838711215293975e-15
lhumerus -35.06359185978863 -19.805117651958806 97.9513768791274
lradius 109.57186659373737
lwrist 34.43831312561809
lhand -24.734176669292538 3.7290530624424587
lfingers 7.12502
lthumb 1.7528325887499359 33.41761488138533
rclavicle -1.7220517624305058e-15 1.786268334246815e-15
rhumerus -55.033141517786724 8.659909467135204 -100.20820293744404
rradius 106.40933860865466
rwrist -9.88203409104886
rhand -15.99423851565706 38.965928609670854
rfingers 7.12502
rthumb 8.97056915739696 9.35614440213682
